<?xml version="1.0" encoding="UTF-8" standalone="no"?>
<!-- Created with Inkscape (http://www.inkscape.org/) -->

<svg
   version="1.1"
   id="svg1"
   width="614"
   height="406"
   viewBox="0 0 614 406"
   sodipodi:docname="AGRO (1).svg"
   inkscape:version="1.3.2 (091e20e, 2023-11-25, custom)"
   xmlns:inkscape="http://www.inkscape.org/namespaces/inkscape"
   xmlns:sodipodi="http://sodipodi.sourceforge.net/DTD/sodipodi-0.dtd"
   xmlns="http://www.w3.org/2000/svg"
   xmlns:svg="http://www.w3.org/2000/svg">
  <defs
     id="defs1" />
  <sodipodi:namedview
     id="namedview1"
     pagecolor="#ffffff"
     bordercolor="#000000"
     borderopacity="0.25"
     inkscape:showpageshadow="2"
     inkscape:pageopacity="0.0"
     inkscape:pagecheckerboard="0"
     inkscape:deskcolor="#d1d1d1"
     showgrid="false"
     inkscape:zoom="0.85504886"
     inkscape:cx="307"
     inkscape:cy="202.91238"
     inkscape:window-width="1366"
     inkscape:window-height="705"
     inkscape:window-x="-8"
     inkscape:window-y="-8"
     inkscape:window-maximized="1"
     inkscape:current-layer="g1" />
  <g
     inkscape:groupmode="layer"
     inkscape:label="Image"
     id="g1">
    <path
       style="fill:#ffffff"
       d="m 480.60095,311.80719 c -11.90796,-5.93348 -14.86364,-19.74875 -6.30948,-29.4914 4.70549,-5.35926 8.25666,-6.82862 16.4159,-6.79239 6.15306,0.0273 7.69586,0.42321 11.5,2.95096 9.74709,6.47665 11.71532,20.03244 4.09331,28.19183 -6.58109,7.04508 -17.49634,9.22858 -25.69973,5.141 z m -52.37851,-14.6371 c -9.13581,-4.50062 -9.5703,-18.06438 -0.85222,-26.60481 7.26767,-7.11958 21.86556,-9.57371 28.56622,-4.80242 11.48127,8.17539 5.56733,25.92883 -10.55308,31.67994 -5.19441,1.85316 -13.10066,1.72751 -17.16092,-0.27271 z m 109.87851,-3.18422 c -13.0136,-2.91707 -22,-11.20308 -22,-20.28534 0,-4.93733 1.88312,-7.65291 7.279,-10.49677 4.83041,-2.54584 18.6608,-2.19666 25.18832,0.63593 16.97518,7.36631 21.90383,22.14294 9.52138,28.54615 -3.39904,1.75772 -15.105,2.69474 -19.9887,1.60003 z m -66.5,-33.71519 c -23.25706,-3.31804 -46.75,-14.3491 -46.75,-21.95138 0,-7.5712 13.02127,-12.47899 46.25,-17.43191 7.00414,-1.044 16.8501,-4.91635 23,-9.04575 7.79543,-5.23429 20.67608,-7.3374 29.23434,-4.77328 5.49638,1.64675 7.103,4.47121 6.58859,11.58281 -0.95672,13.22655 -14.3534,31.91857 -27.52286,38.40187 -5.89557,2.90238 -7.41283,3.20478 -17.13421,3.415 -5.86622,0.12685 -12.01586,0.038 -13.66586,-0.19736 z m -147.21496,-4.09182 c -3.4932,-0.67622 -9.13409,-6.97731 -9.89969,-11.05833 -0.83587,-4.45555 0.86098,-7.81601 5.53825,-10.96802 4.11075,-2.77024 7.52661,-2.86575 13.34182,-0.37306 7.86808,3.37265 11.23994,10.12599 8.22647,16.4764 -2.56386,5.40292 -8.80163,7.55011 -17.20685,5.92301 z m 228.21496,-2.23276 c -12.98994,-1.74541 -22.69884,-10.33132 -20.90714,-18.48888 1.4466,-6.58636 8.50901,-9.938 20.91142,-9.92405 8.06101,0.009 9.709,0.34645 15.73125,3.22061 10.47833,5.00085 14.59596,12.63868 10.19839,18.9171 -3.55905,5.08125 -14.72036,7.78195 -25.93392,6.27522 z m -267.27493,-4.0703 c -8.23154,-5.01877 -6.14324,-16.44588 3.77493,-20.65621 6.32096,-2.68329 13.49665,-0.14742 16.60798,5.86922 1.40867,2.72406 1.46401,3.70319 0.37896,6.70386 -3.11334,8.60979 -13.35696,12.5979 -20.76187,8.08313 z m 72.27493,-9.9174 c -6.87616,-1.18991 -13.27451,-4.89139 -15.42169,-8.92154 -4.43769,-8.32934 9.44979,-14.08101 22.49016,-9.31459 5.87369,2.14691 9.00355,4.54444 11.07537,8.48393 1.32393,2.51739 1.31532,3.08718 -0.0788,5.21481 -0.86079,1.31374 -2.35258,2.79694 -3.31508,3.29599 -2.65614,1.37719 -10.26477,2.01755 -14.75,1.2414 z m -64,-17.0784 c -1.1,-0.47269 -3.06066,-0.89106 -4.35703,-0.92971 -4.04839,-0.12073 -15.14297,-5.95879 -15.14297,-7.96836 0,-3.93923 5.9666,-8.09413 15.37818,-10.70875 16.07283,-4.46518 22.6406,-7.41196 27.62182,-12.39318 2.74574,-2.74574 11.9091,-4.61484 17.49084,-3.5677 12.31591,2.31048 5.25169,29.05234 -9.27831,35.12337 -3.86989,1.61694 -28.19072,1.95771 -31.71253,0.44433 z m 59.50714,-10.59298 c -13.19618,-5.7226 -9.17568,-16.40702 6.17389,-16.40702 6.94257,0 12.18159,1.73708 16.50146,5.47131 4.71795,4.07834 4.17164,7.54213 -1.65865,10.51653 -4.83096,2.46457 -15.79577,2.68326 -21.0167,0.41918 z m -41.08406,-53.3301 c -8.0189,-8.01889 3.39473,-17.36722 13.17904,-10.79428 2.81167,1.88884 3.45014,2.99406 3.7008,6.40624 0.38647,5.26109 -2.16582,7.31112 -9.10235,7.31112 -4.03207,0 -5.34959,-0.49517 -7.77749,-2.92308 z m 29.11576,-1.24552 c -6.36732,-3.72842 -7.79909,-8.11357 -3.85028,-11.79244 4.23797,-3.94827 15.39359,-1.92821 19.71905,3.57072 2.69932,3.43162 2.64275,5.52466 -0.22206,8.21601 -3.05558,2.87057 -10.74936,2.87338 -15.64671,0.006 z m -160.03884,-5.56687 c -0.825,-0.31766 -2.2875,-1.47599 -3.25,-2.57406 -5.84887,-6.67269 5.51522,-13.33013 12.5,-7.3229 6.60429,5.68 -0.48965,13.27011 -9.25,9.89696 z m 21.84226,-2.88621 c -2.38261,-0.98922 -4.10163,-2.59028 -4.93104,-4.59266 -1.16104,-2.803 -1.07124,-3.23767 1.01852,-4.92985 4.84757,-3.92532 15.53152,-1.13801 17.55011,4.57861 1.95649,5.54074 -5.60108,8.28051 -13.63759,4.9439 z m 151.45079,-6.9452 c -1.76382,-0.77205 -3.73707,-2.39426 -4.38499,-3.60492 -1.03243,-1.9291 -0.82144,-2.48654 1.70695,-4.50973 2.45712,-1.96616 4.04174,-2.30927 10.68465,-2.3135 7.81773,-0.005 12.00906,1.25224 14.60579,4.38111 1.72325,2.07639 0.57706,5.07304 -2.47172,6.46216 -3.44706,1.57059 -16.20489,1.30764 -20.14068,-0.41512 z m -53.79305,-0.10241 c -9.07437,-1.53562 -6.53086,-6.91385 6.51081,-13.76705 3.93197,-2.06619 8.11572,-5.17406 9.61977,-7.14597 4.08953,-5.36165 7.83857,-7.59038 12.89676,-7.66684 3.52031,-0.0532 4.90569,0.44141 6.55632,2.34084 4.74541,5.46067 6.11775,12.68436 3.40599,17.92833 -1.66191,3.21377 -3.03421,4.13345 -9.58093,6.42084 -4.50136,1.57276 -23.91168,2.82009 -29.40872,1.88985 z M 170.7143,136.84447 c -5.61001,-0.96178 -6.94825,-1.92817 -6.01996,-4.34723 0.613,-1.59748 7.36794,-6.3244 13.59066,-9.5104 1.47623,-0.75582 3.1769,-2.56403 3.77925,-4.01825 1.37188,-3.312 3.83065,-4.8721 8.9751,-5.69473 3.60963,-0.5772 4.32348,-0.32502 6.9061,2.43967 3.14139,3.36287 4.43619,8.46357 3.26487,12.86152 -1.04346,3.91789 -6.80686,6.89637 -14.94708,7.72454 -3.66426,0.3728 -7.56229,0.8364 -8.66229,1.03023 -1.1,0.19383 -4.19899,-0.0246 -6.88665,-0.48535 z m 41.63665,-0.95351 c -6.6948,-4.0819 -2.74341,-8.01372 8.04705,-8.00722 5.90269,0.004 12.73132,2.55014 12.68764,4.73156 -0.10215,5.10097 -14.11115,7.31411 -20.73469,3.27566 z m 136.12576,-10.03732 c -8.85959,-2.73835 -5.97962,-9.40418 4.60466,-10.65773 7.39891,-0.87629 13.78685,0.39927 15.56122,3.1073 1.87661,2.86406 1.13313,4.94153 -2.34665,6.55713 -3.53333,1.64046 -13.86253,2.21625 -17.81923,0.9933 z m -142.12576,-3.96268 c -1.7875,-1.08986 -3.25,-2.44479 -3.25,-3.01096 0,-2.21873 6.49716,-4.99252 11.70295,-4.99626 6.72631,-0.005 10.29705,1.60536 10.29705,4.64335 0,4.88256 -12.56265,7.13637 -18.75,3.36387 z M 165.41632,75.873018 c -3.30791,-1.33279 -4.79586,-4.7267 -3.29871,-7.52414 2.14517,-4.0083 9.93847,-3.99319 12.57088,0.0244 3.46148,5.2829 -2.60192,10.18727 -9.27217,7.49977 z m 19.02392,-1.92776 c -4.03391,-2.4597 -5.09526,-5.57244 -2.77444,-8.13692 2.13558,-2.35979 5.26853,-2.4523 9.80396,-0.28951 4.74735,2.26386 6.24949,5.74287 3.61646,8.3759 -2.50915,2.50915 -6.58214,2.52848 -10.64598,0.0505 z M 61.41632,71.873018 c -3.52837,-1.42161 -4.75809,-4.6684 -2.86339,-7.56008 3.11715,-4.75736 11.54802,-2.09369 11.54802,3.64851 0,2.26588 -0.60685,3.19877 -2.5651,3.9433 -2.98574,1.13518 -3.22642,1.13393 -6.11953,-0.0317 z m 17.68463,-1.70246 c -7.39406,-2.71874 -6.08011,-9.29056 1.85753,-9.29056 2.84703,0 9.14247,4.14359 9.14247,6.01747 0,3.03918 -6.43151,4.9529 -11,3.27309 z m 118,-5.88893 c -3.93513,-1.4373 -6,-2.86277 -6,-4.14204 0,-2.88952 2.79478,-4.25964 8.67857,-4.25462 4.6673,0.004 6.4162,0.4861 8.82143,2.43179 2.8118,2.27457 2.8949,2.53396 1.32467,4.13465 -1.68872,1.72147 -9.91013,2.89476 -12.82467,1.83022 z m -39.5,-2.26317 c -3.39184,-0.54139 -4,-1.00726 -4,-3.06413 0,-1.97182 1.28803,-3.12282 6.88403,-6.15168 3.78622,-2.0493 7.83622,-4.85285 9,-6.23012 6.60435,-7.81586 15.61597,-5.05883 15.61597,4.77758 0,4.89608 -1.41629,7.25916 -5.33102,8.89484 -3.92854,1.64145 -16.63022,2.65758 -22.16898,1.77351 z m -69,-1.86207 c -4.74038,-1.1652 -6.23442,-5.57832 -2.25,-6.6461 6.56114,-1.75832 14.89968,0.19288 15.56391,3.64191 0.5641,2.92917 -6.83077,4.59777 -13.31391,3.00419 z m -39.55103,-1.83788 c -1.09136,-1.31501 -0.91338,-1.90731 1.12756,-3.75243 1.33291,-1.20502 4.55157,-3.26826 7.15257,-4.58498 2.60101,-1.31672 5.00196,-3.25374 5.33546,-4.3045 0.83531,-2.63185 6.59447,-5.22448 9.81173,-4.417 2.97081,0.74562 5.62371,5.17824 5.62371,9.39643 0,5.85401 -7.39596,9.22397 -20.24357,9.22397 -5.58843,0 -7.84332,-0.39977 -8.80746,-1.56149 z m 139.91181,-8.43851 -2.36078,-2 2.36078,-2 c 4.33002,-3.66828 17.13922,-2.17356 17.13922,2 0,4.17356 -12.8092,5.66828 -17.13922,2 z M 82.35095,48.659508 c -5.31337,-2.56254 -0.87089,-6.77951 7.14207,-6.77951 4.46669,0 8.17399,2.51778 6.80734,4.62314 -2.06691,3.18411 -9.45145,4.32565 -13.94941,2.15637 z"
       id="path1" />
  </g>
</svg>
